<svg width="1248" height="1195" viewBox="0 0 1248 1195" fill="none" xmlns="http://www.w3.org/2000/svg">
<g filter="url(#filter0_f_202_154)">
<path d="M623.835 1094.53C912.829 1094.53 1147.1 959.274 1147.1 792.424C1147.1 625.575 912.829 490.316 623.835 490.316C334.842 490.316 100.566 625.575 100.566 792.424C100.566 959.274 334.842 1094.53 623.835 1094.53Z" fill="black" fill-opacity="0.2"/>
</g>
<path d="M417.169 991.02L539.903 920.149C540.914 919.561 541.753 918.718 542.336 917.704C542.919 916.69 543.226 915.54 543.226 914.371C543.226 913.201 542.919 912.052 542.336 911.038C541.753 910.024 540.914 909.181 539.903 908.592L417.169 837.721C414.349 836.102 411.155 835.25 407.904 835.25C404.653 835.25 401.458 836.102 398.639 837.721L275.905 908.592C274.894 909.181 274.055 910.024 273.472 911.038C272.889 912.052 272.582 913.201 272.582 914.371C272.582 915.54 272.889 916.69 273.472 917.704C274.055 918.718 274.894 919.561 275.905 920.149L398.639 991.02C401.458 992.639 404.653 993.492 407.904 993.492C411.155 993.492 414.349 992.639 417.169 991.02Z" fill="#E0E0E0"/>
<path d="M588.257 892.307L842.871 745.289C844.259 744.485 845.412 743.331 846.213 741.942C847.014 740.552 847.436 738.977 847.436 737.373C847.436 735.769 847.014 734.193 846.213 732.804C845.412 731.415 844.259 730.261 842.871 729.457L639.308 610.734C636.047 608.832 632.339 607.829 628.563 607.829C624.787 607.829 621.079 608.832 617.818 610.734L363.275 757.705C361.887 758.509 360.735 759.663 359.933 761.052C359.132 762.441 358.71 764.017 358.71 765.621C358.71 767.225 359.132 768.8 359.933 770.19C360.735 771.579 361.887 772.733 363.275 773.537L566.862 892.259C570.108 894.152 573.796 895.152 577.553 895.161C581.31 895.169 585.002 894.185 588.257 892.307V892.307Z" fill="#E0E0E0"/>
<path d="M792.368 955.991C855.471 955.991 906.626 926.463 906.626 890.039C906.626 853.615 855.471 824.087 792.368 824.087C729.265 824.087 678.11 853.615 678.11 890.039C678.11 926.463 729.265 955.991 792.368 955.991Z" fill="#E0E0E0"/>
<path d="M300.643 265.669V378.853L202.622 435.468V322.261L300.643 265.669Z" fill="#FAFAFA"/>
<path d="M290.041 271.782V372.788L202.622 423.195V322.261L290.041 271.782ZM295.342 262.589L197.297 319.205V432.483L202.622 435.54L300.643 378.948V265.765L295.342 262.685V262.589Z" fill="#E0E0E0"/>
<path d="M295.342 274.886V375.82L207.923 426.275V325.317L295.342 274.886ZM300.643 265.693L202.622 322.261V435.444L300.643 378.853V265.669V265.693Z" fill="#EBEBEB"/>
<path d="M286.268 352.969L212.102 395.782L233.998 338.761L249.185 356.789L264.682 334.702L286.268 352.969Z" fill="#E0E0E0"/>
<path d="M258.549 324.064C261.193 319.485 261.198 314.537 258.56 313.014C255.922 311.491 251.639 313.969 248.995 318.548C246.351 323.128 246.346 328.076 248.985 329.599C251.623 331.122 255.905 328.644 258.549 324.064Z" fill="#E0E0E0"/>
<path d="M333.356 124.716V214.904L255.25 259.986V169.822L333.356 124.716Z" fill="#FAFAFA"/>
<path d="M324.903 129.611V210.033L255.25 250.22V169.822L324.903 129.611ZM329.129 122.28L251.023 167.434V257.599L255.25 259.986L333.356 214.904V124.74L329.129 122.352V122.28Z" fill="#E0E0E0"/>
<path d="M329.129 132.046V212.468L259.476 252.68V172.21L329.129 131.999M333.356 124.692L255.25 169.822V259.986L333.356 214.904V124.74V124.692Z" fill="#EBEBEB"/>
<path d="M321.894 194.273L262.819 228.395L280.25 182.979L292.357 197.33L304.702 179.731L321.894 194.273Z" fill="#E0E0E0"/>
<path d="M301.478 165.954C301.374 167.824 300.832 169.644 299.894 171.266C298.957 172.888 297.651 174.266 296.082 175.29C293.097 177.009 290.685 175.6 290.685 172.162C290.789 170.292 291.332 168.472 292.269 166.85C293.207 165.228 294.513 163.849 296.082 162.826C299.09 161.106 301.478 162.515 301.478 165.954Z" fill="#E0E0E0"/>
<path d="M568.223 863.081V880.154C568.297 881.009 568.599 881.828 569.099 882.526C569.6 883.223 570.278 883.773 571.064 884.117C573.186 885.201 575.535 885.766 577.917 885.766C580.3 885.766 582.649 885.201 584.771 884.117C585.557 883.773 586.235 883.223 586.735 882.526C587.235 881.828 587.538 881.009 587.612 880.154V863.081H568.223Z" fill="#EBEBEB"/>
<path d="M805.43 726.186V743.259C805.503 744.114 805.806 744.933 806.306 745.631C806.806 746.329 807.485 746.878 808.271 747.223C810.397 748.294 812.744 748.851 815.124 748.851C817.504 748.851 819.852 748.294 821.977 747.223C822.763 746.878 823.442 746.329 823.942 745.631C824.442 744.933 824.745 744.114 824.819 743.259V726.186H805.43Z" fill="#EBEBEB"/>
<path d="M424.428 779.697V796.794C424.501 797.649 424.804 798.469 425.304 799.166C425.804 799.864 426.483 800.414 427.269 800.758C429.395 801.829 431.742 802.386 434.122 802.386C436.503 802.386 438.85 801.829 440.975 800.758C441.761 800.414 442.44 799.864 442.94 799.166C443.44 798.469 443.743 797.649 443.817 796.794V779.697H424.428Z" fill="#EBEBEB"/>
<path d="M621.4 420.186L425.407 527.017V712.91L668.488 582.558L621.4 420.186Z" fill="#455A64"/>
<path d="M783.104 582.558L770.854 575.514L652.059 507.604C651.058 507.036 650.219 506.22 649.622 505.236C649.024 504.252 648.688 503.132 648.644 501.981C648.601 500.831 648.853 499.688 649.375 498.662C649.898 497.636 650.674 496.761 651.63 496.119L659.318 490.961L649.767 425.272C649.115 420.854 647.492 416.635 645.014 412.92C642.537 409.204 639.267 406.083 635.44 403.781L617.937 393.275C617.093 392.774 616.131 392.504 615.15 392.495C614.168 392.485 613.201 392.736 612.347 393.221C611.494 393.706 610.784 394.408 610.289 395.257C609.795 396.105 609.534 397.069 609.532 398.051V637.335C609.539 641.467 610.65 645.523 612.749 649.083C614.848 652.642 617.859 655.577 621.471 657.584L786.733 749.873C788.077 750.62 789.589 751.011 791.127 751.011C792.664 751.011 794.176 750.62 795.52 749.873V749.873L796.165 749.515C797.499 748.69 798.598 747.537 799.359 746.166C800.12 744.795 800.517 743.251 800.511 741.683V612.597C800.503 606.502 798.891 600.517 795.835 595.244C792.779 589.97 788.388 585.595 783.104 582.558V582.558Z" fill="#455A64"/>
<path d="M399.499 521.286V519.639C399.5 515.717 400.53 511.865 402.487 508.466C404.444 505.068 407.259 502.243 410.65 500.274L599.957 390.29C602.046 389.052 604.43 388.399 606.858 388.399C609.286 388.399 611.67 389.052 613.759 390.29L634.246 402.635C635.577 403.426 636.68 404.55 637.446 405.896C638.211 407.242 638.614 408.764 638.614 410.312C638.614 411.861 638.211 413.382 637.446 414.728C636.68 416.074 635.577 417.198 634.246 417.989L434.982 535.828L399.499 521.286Z" fill="#37474F"/>
<path d="M648.549 501.253V689.032L780.548 749.42C783.264 750.663 786.235 751.246 789.219 751.121C792.202 750.997 795.115 750.168 797.717 748.704L817.631 737.457V579.478L648.549 501.253Z" fill="#263238"/>
<path d="M645.684 834.474L750.104 775.924C755.175 773.099 759.414 768.989 762.397 764.009C765.379 759.028 767 753.35 767.097 747.546C767.194 741.741 765.763 736.013 762.948 730.936C760.133 725.858 756.033 721.61 751.059 718.617L647.141 655.721C646.86 655.562 646.544 655.479 646.221 655.479C645.899 655.479 645.582 655.562 645.302 655.721L483.789 745.002C483.512 745.164 483.282 745.396 483.122 745.675C482.962 745.953 482.877 746.269 482.877 746.59C482.877 746.911 482.962 747.227 483.122 747.506C483.282 747.784 483.512 748.016 483.789 748.178L627.059 834.14C629.867 835.809 633.061 836.718 636.327 836.777C639.593 836.836 642.818 836.042 645.684 834.474V834.474Z" fill="#263238"/>
<path d="M634.748 826.475C634.753 827.915 635.135 829.33 635.856 830.577C636.577 831.824 637.611 832.861 638.857 833.585C640.102 834.309 641.515 834.695 642.956 834.704C644.396 834.714 645.814 834.346 647.069 833.638L776.012 761.765C779.77 759.663 782.899 756.596 785.078 752.882C787.256 749.167 788.404 744.939 788.404 740.632V727.953L640.55 816.924C638.815 817.88 637.369 819.284 636.361 820.989C635.353 822.694 634.821 824.638 634.819 826.618L634.748 826.475Z" fill="#455A64"/>
<path d="M644.61 814.536L781.217 739.415C783.343 738.244 785.127 736.538 786.392 734.466C787.657 732.394 788.359 730.028 788.429 727.602C788.499 725.175 787.934 722.773 786.791 720.632C785.647 718.49 783.965 716.685 781.91 715.393L650.102 632.679L484.864 723.989L635.345 814.536C636.751 815.356 638.349 815.788 639.977 815.788C641.605 815.788 643.204 815.356 644.61 814.536V814.536Z" fill="#37474F"/>
<path d="M639.022 808.399L776.967 730.15L646.233 625.468L480.995 716.802L633.387 808.328C634.236 808.836 635.205 809.11 636.195 809.122C637.184 809.135 638.16 808.885 639.022 808.399Z" fill="#263238"/>
<path d="M634.748 761.049V796.747C634.753 798.187 635.135 799.601 635.856 800.848C636.577 802.096 637.611 803.133 638.857 803.857C640.102 804.581 641.515 804.967 642.956 804.976C644.396 804.985 645.814 804.618 647.069 803.91L776.967 730.15C780.473 728.165 783.389 725.284 785.415 721.801C787.442 718.319 788.506 714.36 788.5 710.331V659.781L643.702 745.289C640.966 746.908 638.7 749.214 637.129 751.978C635.558 754.742 634.737 757.869 634.748 761.049V761.049Z" fill="#455A64"/>
<path d="M644.753 748.56L782.721 671.266C784.453 670.299 785.899 668.893 786.916 667.191C787.933 665.488 788.485 663.548 788.517 661.565C788.548 659.582 788.058 657.626 787.095 655.892C786.133 654.158 784.732 652.708 783.032 651.686L646.233 568.876L480.995 660.21L627.775 748.345C630.333 749.88 633.252 750.708 636.235 750.746C639.218 750.784 642.157 750.029 644.753 748.56V748.56Z" fill="#37474F"/>
<path d="M688.426 485.278C685.081 483.334 681.257 482.367 677.39 482.49C673.523 482.612 669.768 483.818 666.553 485.971L659.223 490.89L651.534 496.047C650.578 496.689 649.802 497.565 649.28 498.591C648.757 499.617 648.506 500.759 648.549 501.91C648.592 503.06 648.928 504.181 649.526 505.165C650.123 506.149 650.963 506.964 651.964 507.533L770.758 575.443L782.697 582.224C782.888 582.224 783.055 582.487 783.27 582.582C788.651 585.78 793.086 590.351 796.119 595.827C799.153 601.302 800.677 607.485 800.534 613.744V741.803C800.54 743.371 800.144 744.914 799.383 746.286C798.622 747.657 797.522 748.81 796.189 749.635L825.535 733.063C828.961 731.133 831.812 728.327 833.796 724.933C835.781 721.539 836.828 717.678 836.829 713.746V589.579C836.829 584.129 835.4 578.774 832.685 574.048C829.97 569.322 826.064 565.39 821.356 562.644L688.426 485.278Z" fill="#455A64"/>
<path d="M821.237 562.692L688.426 485.278C685.081 483.334 681.257 482.367 677.39 482.49C673.523 482.612 669.768 483.818 666.553 485.971L659.223 490.89L651.534 496.047C650.578 496.689 649.802 497.565 649.28 498.591C648.757 499.617 648.506 500.759 648.549 501.91C648.592 503.06 648.928 504.181 649.526 505.165C650.123 506.149 650.963 506.964 651.964 507.533L770.758 575.443L782.697 582.224C782.888 582.224 783.055 582.487 783.27 582.582C789.084 585.868 793.738 590.873 796.595 596.909L832.531 573.915C829.793 569.265 825.903 565.4 821.237 562.692Z" fill="#37474F"/>
<path d="M514.282 360.204C514.282 360.204 509.076 320.446 574.503 320.446C629.041 320.446 627.035 379.258 592.173 396.164L514.282 360.204Z" fill="#263238"/>
<path d="M519.678 397.932C532.299 397.932 542.53 387.701 542.53 375.08C542.53 362.46 532.299 352.229 519.678 352.229C507.058 352.229 496.827 362.46 496.827 375.08C496.827 387.701 507.058 397.932 519.678 397.932Z" fill="#263238"/>
<path d="M619.919 375.032C619.924 378.67 618.849 382.228 616.831 385.256C614.812 388.283 611.941 390.643 608.58 392.038C605.22 393.432 601.521 393.799 597.952 393.09C594.383 392.381 591.105 390.63 588.532 388.057C585.959 385.484 584.208 382.206 583.499 378.637C582.79 375.068 583.156 371.369 584.551 368.009C585.945 364.648 588.306 361.777 591.333 359.758C594.36 357.74 597.918 356.665 601.557 356.669C606.427 356.669 611.097 358.604 614.541 362.048C617.985 365.491 619.919 370.162 619.919 375.032Z" fill="#263238"/>
<path d="M523.857 428.782C536.477 428.782 546.708 418.551 546.708 405.931C546.708 393.31 536.477 383.079 523.857 383.079C511.236 383.079 501.005 393.31 501.005 405.931C501.005 418.551 511.236 428.782 523.857 428.782Z" fill="#263238"/>
<path d="M549.287 443.038C561.908 443.038 572.139 432.807 572.139 420.186C572.139 407.565 561.908 397.334 549.287 397.334C536.667 397.334 526.436 407.565 526.436 420.186C526.436 432.807 536.667 443.038 549.287 443.038Z" fill="#263238"/>
<path d="M723.575 778.479L769.827 839.918L756.98 850.067C756.98 850.067 738.451 846.198 731.932 821.699C728.063 807.523 725.269 793.076 723.575 778.479Z" fill="#FFA8A7"/>
<path d="M719.348 774.301C719.348 774.301 706.526 785.93 712.185 796.364C717.844 806.799 727.706 815.157 728.016 828.887C728.327 842.617 735.18 867.092 750.39 870.96C765.601 874.828 780.501 869.527 780.214 864.131C779.927 858.734 769.779 839.918 769.779 839.918C769.779 839.918 755.787 848.586 745.471 840.229C735.156 831.871 732.768 796.675 732.768 796.675L719.348 774.301Z" fill="#C32727"/>
<path opacity="0.2" d="M719.348 774.301C719.348 774.301 706.526 785.93 712.185 796.364C717.844 806.799 727.706 815.157 728.016 828.887C728.327 842.617 735.18 867.092 750.39 870.96C765.601 874.828 780.501 869.527 780.214 864.131C779.927 858.734 769.779 839.918 769.779 839.918C769.779 839.918 755.787 848.586 745.471 840.229C735.156 831.871 732.768 796.675 732.768 796.675L719.348 774.301Z" fill="black"/>
<path d="M640.55 584.062C640.55 584.062 743.537 627.64 751.894 631.819C760.252 635.998 774.865 643.758 773.385 677.188C771.904 710.617 763.523 793.929 763.523 793.929L707.051 685.33L561.226 615.94L640.55 584.062Z" fill="#C32727"/>
<path opacity="0.5" d="M640.55 584.062C640.55 584.062 743.537 627.64 751.894 631.819C760.252 635.998 774.865 643.758 773.385 677.188C771.904 710.617 763.523 793.929 763.523 793.929L707.051 685.33L561.226 615.94L640.55 584.062Z" fill="black"/>
<path d="M767.654 750.948C765.457 774.683 763.523 793.929 763.523 793.929L707.051 685.33L603.085 635.926L626.701 617.444C659.939 634.159 708.197 658.348 722.596 665.726C740.958 675.11 746.617 701.711 762.425 738.651C764.096 742.567 765.863 746.698 767.654 750.948Z" fill="#C32727"/>
<path opacity="0.7" d="M767.654 750.948C765.457 774.683 763.523 793.929 763.523 793.929L707.051 685.33L603.085 635.926L626.701 617.444C659.939 634.159 708.197 658.348 722.596 665.726C740.958 675.11 746.617 701.711 762.425 738.651C764.096 742.567 765.863 746.698 767.654 750.948Z" fill="black"/>
<path d="M632.026 606.27L621.4 622.34L629.71 623.605L632.026 606.27Z" fill="#C32727"/>
<path opacity="0.7" d="M632.026 606.27L621.4 622.34L629.71 623.605L632.026 606.27Z" fill="black"/>
<path d="M769.207 864.131C769.207 864.131 767.726 866.519 767.726 879.031C767.726 891.543 772.502 893.907 778.829 896.152C785.157 898.396 803.233 911.601 808.271 917.403C813.31 923.206 833.439 929.342 853.33 925.689C873.22 922.036 877.471 908.974 867.872 900.641C858.273 892.307 831.004 876.762 831.004 876.762L769.207 864.131Z" fill="#C32727"/>
<path d="M530.71 609.78L575.028 599.631C575.028 599.631 698.073 661.333 716.412 670.741C734.75 680.149 740.433 706.725 756.241 743.665C768.18 771.46 783.653 809.593 793.897 832.492C793.897 832.492 786.614 851.834 763.523 846.987C755.691 829.914 741.866 814.631 721.784 787.53C704.377 764.033 697.595 743.283 694.945 730.843C694.176 727.17 692.385 723.788 689.779 721.089C687.172 718.389 683.856 716.481 680.212 715.584C659.892 710.642 618.511 699.944 574.813 684.877C513.279 663.577 530.71 609.78 530.71 609.78Z" fill="#C32727"/>
<path opacity="0.5" d="M530.71 609.78L575.028 599.631C575.028 599.631 698.073 661.333 716.412 670.741C734.75 680.149 740.433 706.725 756.241 743.665C768.18 771.46 783.653 809.593 793.897 832.492C793.897 832.492 786.614 851.834 763.523 846.987C755.691 829.914 741.866 814.631 721.784 787.53C704.377 764.033 697.595 743.283 694.945 730.843C694.176 727.17 692.385 723.788 689.779 721.089C687.172 718.389 683.856 716.481 680.212 715.584C659.892 710.642 618.511 699.944 574.813 684.877C513.279 663.577 530.71 609.78 530.71 609.78Z" fill="black"/>
<path d="M793.897 832.397C797.263 839.943 800.081 845.84 801.991 849.112C809.704 862.531 832.245 877.073 840.197 883.926C848.148 890.779 849.748 893.478 842.25 899.208C823.148 913.917 806.433 897.871 795.687 887.58C788.483 880.991 780.581 875.21 772.12 870.34C771.495 869.993 770.956 869.51 770.543 868.927C770.13 868.345 769.853 867.677 769.732 866.973C768.556 860.009 766.46 853.232 763.5 846.819V846.819C786.614 851.738 793.897 832.397 793.897 832.397Z" fill="#FFA8A7"/>
<path d="M577.702 651.853L655.187 696.577L783.987 622.101L706.526 576.469L577.702 651.853Z" fill="#EBEBEB"/>
<path d="M646.854 639.126L675.914 622.34L657.695 611.833L628.635 628.62L646.854 639.126Z" fill="#E0E0E0"/>
<path d="M658.483 685.402L619.322 662.36L695.828 616.06L658.483 685.402Z" fill="#E0E0E0"/>
<path d="M656.19 547.218L687.232 561.736C696.486 564.079 705.611 566.901 714.573 570.189C714.573 570.189 736.063 579.024 737.114 584.803C738.164 590.581 720.924 604.502 705.857 597.721C701.887 595.641 697.654 594.107 693.273 593.16C689.238 592.73 677.203 590.772 668.511 582.558L643.415 575.753C643.415 575.753 630.521 550.8 656.19 547.218Z" fill="#FFA8A7"/>
<path d="M676.367 590.438C679.973 594.283 690.193 603.977 692.438 606.795C694.682 609.612 699.935 602.377 690.694 591.632C682.695 588.701 675.172 584.605 668.368 579.478C670.755 583.328 673.429 586.991 676.367 590.438Z" fill="#FFA8A7"/>
<path d="M592.793 439.455C599.914 438.325 607.204 439.756 613.368 443.494C619.533 447.232 624.172 453.035 626.462 459.871C629.728 469.742 631.835 479.959 632.742 490.316C635.44 522.242 636.18 538.192 636.18 538.192L668.249 552.734C668.249 552.734 650.937 553.57 652.107 578.021L612.159 567.945L592.793 439.455Z" fill="#FFA8A7"/>
<path d="M633.673 501.563C633.387 498.077 633.076 494.328 632.742 490.316C631.835 479.959 629.728 469.742 626.462 459.871C624.172 453.035 619.533 447.232 613.368 443.494C607.204 439.756 599.914 438.325 592.793 439.455L604.518 517.323L633.673 501.563Z" fill="#C32727"/>
<path opacity="0.2" d="M633.673 501.563C633.387 498.077 633.076 494.328 632.742 490.316C631.835 479.959 629.728 469.742 626.462 459.871C624.172 453.035 619.533 447.232 613.368 443.494C607.204 439.756 599.914 438.325 592.793 439.455L604.518 517.323L633.673 501.563Z" fill="black"/>
<path d="M636.18 538.192C632.552 539.289 629.265 541.295 626.629 544.019C626.629 544.019 630.497 536.664 635.918 534.467L636.18 538.192Z" fill="#F28F8F"/>
<path d="M542.195 452.135L519.678 461.686V527.662C526.737 544.549 530.56 562.612 530.949 580.911V613.576C530.949 613.576 576.938 629.957 612.613 612.239C629.9 603.643 640.574 584.039 640.574 584.039C640.574 584.039 621.471 572.864 621.471 559.205C621.841 548.531 623.111 537.907 625.268 527.447C629.428 523.313 632.581 518.276 634.482 512.727C636.382 507.179 636.98 501.267 636.228 495.45C633.697 473.673 592.698 439.432 592.698 439.432L577.416 441.533L542.195 452.135Z" fill="#C32727"/>
<path d="M542.195 452.135L577.511 441.557V398.815H542.195V452.135Z" fill="#FFA8A7"/>
<path d="M577.511 441.557C570.289 438.879 563.687 434.761 558.104 429.454C552.522 424.146 548.076 417.76 545.037 410.682V398.743H577.511V441.557Z" fill="#F28F8F"/>
<path d="M585.749 340.91C585.749 340.91 618.057 342.797 614.045 398.027C612.207 423.577 606.237 436.805 586.561 435.826C564.283 434.728 532.644 419.422 534.722 375.725C536.799 332.027 585.749 340.91 585.749 340.91Z" fill="#FFA8A7"/>
<path d="M542.195 398.815C542.195 398.815 551.054 401.203 551.054 388.452C551.054 388.452 590.406 385.777 599.097 346.736C599.097 346.736 595.205 335.036 570.634 335.036C546.064 335.036 525.409 356.765 531.832 386.637L542.195 398.815Z" fill="#263238"/>
<path d="M590.382 386.947V405.931L601.485 402.516L590.382 386.947Z" fill="#F28F8F"/>
<path d="M573.691 388.953C573.691 389.718 573.918 390.466 574.343 391.102C574.768 391.739 575.372 392.234 576.079 392.527C576.786 392.82 577.564 392.896 578.314 392.747C579.064 392.598 579.754 392.23 580.295 391.689C580.835 391.148 581.204 390.458 581.353 389.708C581.502 388.958 581.426 388.18 581.133 387.473C580.84 386.766 580.344 386.162 579.708 385.737C579.072 385.312 578.324 385.085 577.559 385.085C576.533 385.085 575.549 385.493 574.824 386.218C574.098 386.943 573.691 387.927 573.691 388.953V388.953Z" fill="#263238"/>
<path d="M599.097 386.279C599.097 387.044 599.324 387.792 599.749 388.428C600.174 389.064 600.779 389.56 601.485 389.853C602.192 390.146 602.97 390.222 603.72 390.073C604.471 389.924 605.16 389.555 605.701 389.014C606.242 388.473 606.61 387.784 606.76 387.034C606.909 386.283 606.832 385.505 606.54 384.799C606.247 384.092 605.751 383.488 605.115 383.063C604.479 382.638 603.731 382.411 602.966 382.411C602.458 382.411 601.955 382.511 601.485 382.705C601.016 382.9 600.59 383.184 600.23 383.544C599.871 383.903 599.586 384.329 599.392 384.799C599.197 385.268 599.097 385.771 599.097 386.279V386.279Z" fill="#263238"/>
<path d="M607.67 378.208L600.1 373.719C600.1 373.719 603.014 370.71 605.903 372.525C606.737 373.182 607.353 374.077 607.669 375.092C607.984 376.107 607.985 377.193 607.67 378.208V378.208Z" fill="#263238"/>
<path d="M589.403 412.235C584.998 412.548 580.616 411.37 576.962 408.892C576.962 408.892 576.103 415.458 581.595 416.7C587.087 417.941 589.403 412.235 589.403 412.235Z" fill="#F28F8F"/>
<path d="M545.323 400.248C545.453 397.029 544.857 393.821 543.58 390.864C542.961 389.027 541.816 387.413 540.288 386.22C538.76 385.027 536.916 384.309 534.984 384.154C525.051 383.867 523.714 393.419 523.857 396.833C524.215 405.764 531.426 415.41 544.894 415.769L545.323 400.248Z" fill="#FFA8A7"/>
<path d="M577.511 441.557L587.922 455.096C589.097 456.618 589.924 458.379 590.345 460.255C590.765 462.131 590.77 464.076 590.358 465.954C589.946 467.832 589.127 469.597 587.96 471.125C586.792 472.652 585.304 473.905 583.6 474.796V474.796C578.978 477.213 573.659 477.95 568.554 476.878C563.449 475.806 558.875 472.994 555.615 468.922L542.195 452.207L577.511 441.557Z" fill="#FFA8A7"/>
<path d="M577.702 604.407L607.24 620.477C611.762 620.125 616.305 620.125 620.827 620.477C626.032 621.098 639.929 623.629 643.487 623.796C647.045 623.963 643.63 630.649 634.246 630.052C634.246 630.052 655.426 639.747 656.166 645.573C656.907 651.399 639.189 664.676 624.384 657.202C620.519 654.937 616.356 653.225 612.016 652.116C607.98 651.519 596.065 649.131 587.707 640.487L562.946 632.583C562.946 632.583 551.914 606.962 577.702 604.407Z" fill="#FFA8A7"/>
<path d="M519.678 461.71C519.678 461.71 537.611 474.103 534.626 512.189C532.831 535.292 532.831 558.5 534.626 581.603L577.702 604.407C573.062 607.474 569.274 611.666 566.693 616.594C564.113 621.521 562.823 627.022 562.946 632.583C562.946 632.583 501.005 619.833 497.304 605.41C493.603 590.988 492.242 521.979 492.242 509.897C492.242 497.814 497.28 471.31 519.678 461.71Z" fill="#FFA8A7"/>
<path d="M492.242 510.016C492.242 515.102 492.505 530.408 493.054 547.457C505.886 552.677 520.169 553.101 533.289 548.651V548.651C533.289 538.025 533.575 525.513 534.626 512.189C537.611 474.103 519.678 461.71 519.678 461.71C497.28 471.31 492.242 498.005 492.242 510.016Z" fill="#C32727"/>
<path opacity="0.2" d="M492.242 510.016C492.242 515.102 492.505 530.408 493.054 547.457C505.886 552.677 520.169 553.101 533.289 548.651V548.651C533.289 538.025 533.575 525.513 534.626 512.189C537.611 474.103 519.678 461.71 519.678 461.71C497.28 471.31 492.242 498.005 492.242 510.016Z" fill="black"/>
<path d="M534.578 581.603C529.837 581.49 525.123 582.351 520.729 584.134C524.681 581.029 529.355 578.975 534.315 578.165L534.578 581.603Z" fill="#F28F8F"/>
<path d="M801.943 536.76L788.596 624.918C788.596 624.918 788.596 624.918 788.596 625.062L654.877 702.642C654.843 702.66 654.804 702.667 654.765 702.665C654.727 702.662 654.69 702.649 654.658 702.627C654.626 702.605 654.601 702.575 654.585 702.54C654.569 702.504 654.563 702.466 654.567 702.427L667.628 616.943C667.916 615.123 668.594 613.387 669.617 611.853C670.639 610.32 671.981 609.026 673.55 608.06L795.974 532.772C796.619 532.382 797.361 532.184 798.114 532.201C798.867 532.218 799.6 532.45 800.226 532.868C800.853 533.286 801.347 533.875 801.651 534.564C801.955 535.253 802.057 536.015 801.943 536.76V536.76Z" fill="#FAFAFA"/>
<path d="M654.59 702.642L583.242 661.261C581.598 660.301 580.233 658.927 579.282 657.277C578.331 655.627 577.828 653.757 577.822 651.853L655.307 696.577L654.59 702.642Z" fill="#E0E0E0"/>
<path d="M724.506 621.719C724.506 627.999 728.948 630.554 734.392 627.402C737.263 625.527 739.652 623.002 741.366 620.032C743.079 617.061 744.069 613.729 744.254 610.305C744.254 604.001 739.836 601.47 734.392 604.598C731.517 606.476 729.124 609.005 727.407 611.979C725.69 614.953 724.696 618.29 724.506 621.719Z" fill="#E0E0E0"/>
<path opacity="0.2" d="M592.794 532.199C592.794 532.199 565.787 539.553 551.46 519.257C551.46 519.257 560.725 545.451 592.794 532.199Z" fill="black"/>
<path d="M517.887 350.772C517.887 350.772 511.321 334.057 507.381 336.086C503.441 338.116 511.44 348.718 511.44 348.718C511.44 348.718 498.021 343.465 496.898 346.569C495.776 349.673 514.043 356.67 514.043 356.67L517.887 350.772Z" fill="#263238"/>
<path d="M573.118 705.913L560.868 698.75L442.074 630.84C441.074 630.269 440.237 629.452 439.641 628.467C439.046 627.482 438.712 626.361 438.671 625.21C438.63 624.06 438.884 622.918 439.409 621.893C439.933 620.868 440.711 619.994 441.668 619.355L449.333 614.197L439.781 548.531C439.135 544.111 437.515 539.89 435.037 536.173C432.559 532.457 429.286 529.337 425.454 527.041L407.952 516.558C407.109 516.049 406.145 515.774 405.161 515.76C404.176 515.747 403.206 515.996 402.349 516.483C401.493 516.969 400.782 517.675 400.289 518.528C399.797 519.381 399.54 520.349 399.546 521.334V760.69C399.556 764.822 400.668 768.877 402.766 772.436C404.865 775.995 407.875 778.93 411.486 780.939L576.747 873.228C578.079 873.987 579.581 874.396 581.114 874.416C582.646 874.437 584.159 874.07 585.511 873.348L586.155 872.99C587.473 872.155 588.555 870.997 589.299 869.626C590.043 868.256 590.424 866.717 590.406 865.158V735.952C590.408 729.87 588.812 723.893 585.778 718.621C582.744 713.349 578.378 708.967 573.118 705.913Z" fill="#263238"/>
<path d="M478.44 608.657C475.1 606.704 471.276 605.73 467.408 605.848C463.54 605.967 459.783 607.172 456.568 609.326L449.213 614.245L441.549 619.403C440.592 620.043 439.814 620.916 439.29 621.941C438.765 622.966 438.511 624.108 438.552 625.258C438.592 626.409 438.926 627.53 439.522 628.515C440.117 629.5 440.955 630.317 441.954 630.888L560.749 698.798L572.688 705.579L573.261 705.961C578.625 709.147 583.047 713.699 586.076 719.153C589.105 724.606 590.632 730.766 590.501 737.003V865.158C590.509 866.727 590.114 868.271 589.353 869.642C588.592 871.014 587.491 872.167 586.155 872.99L615.526 856.442C618.951 854.507 621.799 851.696 623.78 848.298C625.76 844.899 626.801 841.035 626.796 837.101V712.934C626.808 707.487 625.387 702.133 622.675 697.409C619.964 692.686 616.057 688.759 611.347 686.023L478.44 608.657Z" fill="#455A64"/>
<path d="M611.252 686.071L478.44 608.657C475.1 606.704 471.276 605.73 467.408 605.848C463.54 605.967 459.783 607.172 456.568 609.326L449.213 614.245L441.549 619.403C440.592 620.043 439.814 620.916 439.29 621.941C438.765 622.966 438.511 624.108 438.552 625.258C438.592 626.409 438.926 627.53 439.522 628.515C440.117 629.5 440.955 630.317 441.954 630.888L560.749 698.798L572.688 705.579L573.261 705.961C579.079 709.25 583.74 714.253 586.609 720.288L622.427 697.317C619.738 692.664 615.887 688.789 611.252 686.071V686.071Z" fill="#37474F"/>
<path d="M519.487 766.589V922.132L406.089 856.657V701.114L519.487 766.589Z" fill="#C32727"/>
<path opacity="0.4" d="M519.487 766.589V922.132L406.089 856.657V701.114L519.487 766.589Z" fill="black"/>
<path d="M528.442 761.598V917.165L519.487 922.131V766.588L528.442 761.598Z" fill="#C32727"/>
<path d="M415.044 827.072V982.615L301.669 917.165V761.598L415.044 827.072Z" fill="#C32727"/>
<path opacity="0.4" d="M415.044 827.072V982.615L301.669 917.165V761.598L415.044 827.072Z" fill="black"/>
<path d="M424.022 822.105V977.649L415.043 982.615V827.072L424.022 822.105Z" fill="#C32727"/>
<path d="M415.043 839.465L528.441 774.014V761.598L415.043 827.072V839.465Z" fill="#C32727"/>
<path d="M415.043 982.615L528.441 917.165V827.812L415.043 893.287V982.615Z" fill="#C32727"/>
<path d="M415.044 827.072L528.442 761.598L415.044 696.147L301.669 761.598L415.044 827.072Z" fill="#C32727"/>
<path opacity="0.2" d="M415.044 827.072L528.442 761.598L415.044 696.147L301.669 761.598L415.044 827.072Z" fill="black"/>
<path d="M424.022 890.421L519.487 835.31V779.148L424.022 834.26V890.421Z" fill="#C32727"/>
<path opacity="0.6" d="M424.022 890.421L519.487 835.31V779.148L424.022 834.26V890.421Z" fill="white"/>
<path d="M470.775 830.128C470.775 831.503 471.183 832.846 471.946 833.989C472.71 835.131 473.795 836.022 475.065 836.548C476.335 837.074 477.732 837.211 479.08 836.943C480.427 836.675 481.666 836.013 482.637 835.042C483.609 834.07 484.271 832.832 484.539 831.484C484.807 830.136 484.67 828.739 484.144 827.469C483.618 826.199 482.727 825.114 481.584 824.351C480.442 823.587 479.098 823.18 477.724 823.18C475.881 823.18 474.114 823.912 472.811 825.215C471.507 826.518 470.775 828.285 470.775 830.128V830.128Z" fill="white"/>
<path d="M424.022 960.313L519.487 905.202V849.04L424.022 904.151V960.313Z" fill="#C32727"/>
<path opacity="0.6" d="M424.022 960.313L519.487 905.202V849.04L424.022 904.151V960.313Z" fill="white"/>
<path d="M470.775 900.02C470.775 901.395 471.183 902.738 471.946 903.881C472.71 905.023 473.795 905.914 475.065 906.44C476.335 906.966 477.732 907.103 479.08 906.835C480.427 906.567 481.666 905.905 482.637 904.934C483.609 903.962 484.271 902.724 484.539 901.376C484.807 900.028 484.67 898.631 484.144 897.361C483.618 896.092 482.727 895.006 481.584 894.243C480.442 893.479 479.098 893.072 477.724 893.072C475.881 893.072 474.114 893.804 472.811 895.107C471.507 896.41 470.775 898.177 470.775 900.02V900.02Z" fill="white"/>
<path d="M385.339 751.02C386.96 748.203 389.344 745.902 392.216 744.381C402.985 738.173 420.44 738.173 431.209 744.381C434.081 745.902 436.465 748.203 438.086 751.02H439.28V755.652C439.28 759.735 436.606 763.794 431.209 766.899C420.44 773.131 402.985 773.131 392.216 766.899C386.819 763.794 384.121 759.735 384.121 755.652V751.02H385.339Z" fill="#263238"/>
<path d="M392.216 762.266C402.985 768.498 420.44 768.498 431.209 762.266C441.978 756.034 441.978 745.981 431.209 739.749C420.44 733.516 402.985 733.54 392.216 739.749C381.447 745.957 381.447 756.058 392.216 762.266Z" fill="#37474F"/>
<path d="M412.298 751.02H411.128C409.696 751.02 408.324 750.451 407.312 749.439C406.3 748.427 405.731 747.054 405.731 745.623V619.068H417.67V745.623C417.67 747.054 417.102 748.427 416.09 749.439C415.078 750.451 413.705 751.02 412.274 751.02H412.298Z" fill="#263238"/>
<path d="M358.261 669.069C358.428 668.425 358.643 667.756 358.882 667.111L375.788 613.337H447.637L464.543 667.111C464.782 667.756 464.997 668.425 465.164 669.069C467.552 678.477 462.418 688.387 449.906 695.622C428.797 707.776 394.604 707.776 373.495 695.622C361.007 688.387 355.921 678.43 358.261 669.069Z" fill="#C32727"/>
<path opacity="0.4" d="M358.261 669.069C358.428 668.425 358.643 667.756 358.882 667.111L375.788 613.337H447.637L464.543 667.111C464.782 667.756 464.997 668.425 465.164 669.069C467.552 678.477 462.418 688.387 449.906 695.622C428.797 707.776 394.604 707.776 373.495 695.622C361.007 688.387 355.921 678.43 358.261 669.069Z" fill="white"/>
<path d="M411.701 637.287C431.746 637.287 447.995 627.912 447.995 616.346C447.995 604.78 431.746 595.405 411.701 595.405C391.655 595.405 375.406 604.78 375.406 616.346C375.406 627.912 391.655 637.287 411.701 637.287Z" fill="#C32727"/>
<path d="M411.701 595.381V599.631C419.895 599.443 428.001 601.358 435.245 605.195C440.713 608.347 443.745 612.358 443.745 616.322C443.745 620.286 440.713 624.274 435.245 627.449C427.94 631.109 419.883 633.015 411.712 633.015C403.542 633.015 395.485 631.109 388.18 627.449C382.712 624.274 379.68 620.286 379.68 616.322C379.68 612.358 382.712 608.347 388.18 605.195C395.416 601.36 403.514 599.445 411.701 599.631V595.357M411.701 595.357C402.769 595.189 393.943 597.301 386.055 601.494C371.872 609.684 371.872 622.984 386.055 631.127C394.006 635.16 402.797 637.262 411.712 637.262C420.628 637.262 429.419 635.16 437.37 631.127C451.553 622.96 451.553 609.636 437.37 601.494C429.475 597.297 420.64 595.185 411.701 595.357V595.357Z" fill="#C32727"/>
<path opacity="0.2" d="M411.701 595.381V599.631C419.895 599.443 428.001 601.358 435.245 605.195C440.713 608.347 443.745 612.358 443.745 616.322C443.745 620.286 440.713 624.274 435.245 627.449C427.94 631.109 419.883 633.015 411.712 633.015C403.542 633.015 395.485 631.109 388.18 627.449C382.712 624.274 379.68 620.286 379.68 616.322C379.68 612.358 382.712 608.347 388.18 605.195C395.416 601.36 403.514 599.445 411.701 599.631V595.357M411.701 595.357C402.769 595.189 393.943 597.301 386.055 601.494C371.872 609.684 371.872 622.984 386.055 631.127C394.006 635.16 402.797 637.262 411.712 637.262C420.628 637.262 429.419 635.16 437.37 631.127C451.553 622.96 451.553 609.636 437.37 601.494C429.475 597.297 420.64 595.185 411.701 595.357V595.357Z" fill="white"/>
<path d="M1111.72 265.837L792.154 81.3292C788.5 79.204 785.181 79.3712 782.865 81.3292L771.881 88.9464L779.331 98.1873V356.073C779.331 365.505 785.086 376.465 792.154 380.572L1108.56 563.169L1109.16 573.198L1120.81 565.223C1122.15 563.964 1123.18 562.418 1123.83 560.701C1124.48 558.984 1124.73 557.141 1124.56 555.313V290.264C1124.54 280.88 1118.81 269.92 1111.72 265.837Z" fill="#C32727"/>
<path opacity="0.3" d="M1111.72 265.837L792.154 81.3292C788.5 79.204 785.181 79.3712 782.865 81.3292L771.881 88.9464L779.331 98.1873V356.073C779.331 365.505 785.086 376.465 792.154 380.572L1108.56 563.169L1109.16 573.198L1120.81 565.223C1122.15 563.964 1123.18 562.418 1123.83 560.701C1124.48 558.984 1124.73 557.141 1124.56 555.313V290.264C1124.54 280.88 1118.81 269.92 1111.72 265.837Z" fill="black"/>
<path d="M1100.85 572.482L781.265 387.974C774.102 383.891 768.442 372.931 768.442 363.475V98.4261C768.442 88.9942 774.197 84.6484 781.265 88.8748L1100.85 273.358C1108.02 277.466 1113.65 288.426 1113.65 297.858V562.907C1113.65 572.243 1107.92 576.565 1100.85 572.482Z" fill="#C32727"/>
<path d="M1041.16 538.025L1063.43 550.895L904.931 160.223L879.954 145.8L1041.16 538.025Z" fill="#C32727"/>
<path opacity="0.2" d="M1041.16 538.025L1063.43 550.895L904.931 160.223L879.954 145.8L1041.16 538.025Z" fill="white"/>
<path d="M1091.32 567.037L1099.08 571.312L940.557 180.639L930.146 174.812L1091.32 567.037Z" fill="#C32727"/>
<path opacity="0.2" d="M1091.32 567.037L1099.08 571.312L940.557 180.639L930.146 174.812L1091.32 567.037Z" fill="white"/>
<path d="M811.853 143.699C811.853 149.119 808.032 151.316 803.328 148.618C800.872 147.011 798.825 144.854 797.349 142.317C795.874 139.78 795.01 136.934 794.828 134.004C794.828 128.56 798.648 126.363 803.328 129.085C805.793 130.685 807.848 132.841 809.328 135.379C810.809 137.917 811.673 140.766 811.853 143.699V143.699Z" fill="#455A64"/>
<path d="M864.099 173.786C863.722 173.784 863.352 173.685 863.024 173.499L822.24 149.931C821.996 149.79 821.781 149.602 821.609 149.378C821.437 149.154 821.311 148.899 821.238 148.626C821.165 148.353 821.146 148.069 821.183 147.789C821.22 147.509 821.311 147.239 821.452 146.994C821.593 146.75 821.781 146.535 822.005 146.363C822.229 146.191 822.485 146.065 822.758 145.992C823.03 145.919 823.315 145.9 823.595 145.937C823.875 145.974 824.145 146.065 824.389 146.206L865.173 169.822C865.418 169.963 865.633 170.151 865.805 170.375C865.977 170.599 866.103 170.854 866.176 171.127C866.249 171.4 866.268 171.684 866.231 171.964C866.194 172.244 866.103 172.514 865.961 172.759C865.769 173.079 865.495 173.342 865.168 173.522C864.841 173.702 864.472 173.793 864.099 173.786V173.786Z" fill="#455A64"/>
<path d="M1087.07 512.523C1086.54 512.53 1086.01 512.39 1085.55 512.117L793.371 343.369C793.02 343.167 792.712 342.898 792.465 342.576C792.218 342.255 792.037 341.888 791.931 341.497C791.826 341.106 791.799 340.697 791.851 340.296C791.904 339.894 792.035 339.506 792.237 339.155C792.439 338.804 792.709 338.496 793.03 338.249C793.351 338.002 793.718 337.82 794.109 337.715C794.501 337.61 794.909 337.582 795.311 337.635C795.713 337.687 796.1 337.818 796.452 338.021L1088.67 506.769C1089.27 507.107 1089.73 507.631 1089.99 508.26C1090.25 508.889 1090.3 509.587 1090.12 510.245C1089.94 510.903 1089.55 511.483 1089.01 511.896C1088.47 512.308 1087.8 512.528 1087.12 512.523H1087.07Z" fill="#455A64"/>
<path d="M1087.07 293.989C1086.8 293.988 1086.53 293.914 1086.29 293.774L1078.43 289.214C1078.25 289.108 1078.09 288.967 1077.96 288.798C1077.83 288.63 1077.74 288.439 1077.69 288.235C1077.63 288.03 1077.62 287.818 1077.65 287.609C1077.68 287.4 1077.75 287.199 1077.86 287.017C1077.96 286.83 1078.1 286.666 1078.26 286.534C1078.43 286.402 1078.62 286.305 1078.83 286.249C1079.03 286.194 1079.25 286.18 1079.46 286.209C1079.67 286.239 1079.87 286.31 1080.05 286.42L1087.86 290.933C1088.21 291.086 1088.49 291.358 1088.65 291.699C1088.82 292.04 1088.86 292.428 1088.76 292.795C1088.67 293.162 1088.45 293.483 1088.14 293.702C1087.83 293.921 1087.45 294.023 1087.07 293.989V293.989Z" fill="#455A64"/>
<path d="M1087.07 299.72C1086.8 299.719 1086.53 299.645 1086.29 299.505L1078.45 294.992C1078.27 294.886 1078.11 294.745 1077.98 294.577C1077.86 294.409 1077.76 294.217 1077.71 294.013C1077.66 293.809 1077.64 293.596 1077.67 293.387C1077.7 293.178 1077.77 292.977 1077.88 292.795C1077.98 292.608 1078.12 292.444 1078.29 292.312C1078.45 292.18 1078.65 292.084 1078.85 292.028C1079.06 291.972 1079.27 291.958 1079.48 291.988C1079.69 292.017 1079.9 292.089 1080.08 292.198L1087.89 296.711C1088.2 296.882 1088.46 297.155 1088.6 297.487C1088.74 297.819 1088.77 298.189 1088.67 298.538C1088.58 298.887 1088.37 299.193 1088.08 299.408C1087.79 299.622 1087.44 299.732 1087.07 299.72V299.72Z" fill="#455A64"/>
<path d="M1087.07 305.475C1086.8 305.474 1086.53 305.4 1086.29 305.26L1078.45 300.747C1078.27 300.641 1078.11 300.5 1077.98 300.332C1077.86 300.164 1077.76 299.972 1077.71 299.768C1077.66 299.564 1077.64 299.351 1077.67 299.142C1077.7 298.933 1077.77 298.732 1077.88 298.55C1077.98 298.363 1078.12 298.199 1078.29 298.067C1078.45 297.935 1078.65 297.838 1078.85 297.783C1079.06 297.727 1079.27 297.713 1079.48 297.743C1079.69 297.772 1079.9 297.844 1080.08 297.953L1087.89 302.466C1088.2 302.637 1088.46 302.91 1088.6 303.242C1088.74 303.574 1088.77 303.944 1088.67 304.293C1088.58 304.642 1088.37 304.948 1088.08 305.163C1087.79 305.377 1087.44 305.487 1087.07 305.475V305.475Z" fill="#455A64"/>
<path d="M910.661 277.059V321.401C910.662 321.821 910.751 322.236 910.923 322.619C911.095 323.002 911.346 323.344 911.659 323.624C911.973 323.903 912.341 324.113 912.741 324.241C913.141 324.368 913.563 324.409 913.981 324.362L954.263 319.587C954.821 319.52 955.348 319.297 955.785 318.944C956.221 318.591 956.549 318.122 956.731 317.591C956.913 317.06 956.942 316.488 956.814 315.941C956.685 315.395 956.406 314.895 956.006 314.501L915.724 274.886C915.305 274.464 914.77 274.178 914.186 274.065C913.603 273.951 912.999 274.016 912.453 274.25C911.907 274.485 911.444 274.878 911.125 275.379C910.805 275.88 910.644 276.465 910.661 277.059Z" fill="#FAFAFA"/>
<path d="M919.162 408.915L796.38 338.021C796.029 337.818 795.641 337.687 795.239 337.635C794.837 337.582 794.429 337.61 794.038 337.715C793.646 337.82 793.279 338.002 792.958 338.249C792.637 338.496 792.367 338.804 792.165 339.155C791.963 339.506 791.832 339.894 791.779 340.296C791.727 340.697 791.754 341.106 791.859 341.497C791.965 341.888 792.146 342.255 792.393 342.576C792.64 342.898 792.948 343.167 793.299 343.369L919.162 416.055V408.915Z" fill="#EBEBEB"/>
<path d="M927.663 416.676C927.663 422.096 923.866 424.293 919.162 421.595C916.685 419.977 914.624 417.797 913.147 415.233C911.67 412.669 910.818 409.793 910.662 406.838C910.662 401.418 914.458 399.221 919.162 402.062C921.624 403.664 923.675 405.82 925.151 408.358C926.628 410.896 927.488 413.745 927.663 416.676V416.676Z" fill="#FAFAFA"/>
<path d="M819.136 375.175V386.828C819.138 386.938 819.164 387.046 819.211 387.146C819.258 387.245 819.325 387.334 819.408 387.406C819.491 387.478 819.589 387.532 819.694 387.564C819.799 387.596 819.91 387.605 820.019 387.592L830.597 386.374C830.743 386.355 830.88 386.295 830.993 386.202C831.107 386.109 831.192 385.986 831.239 385.847C831.286 385.707 831.294 385.558 831.26 385.415C831.227 385.272 831.155 385.141 831.051 385.037L820.473 374.602C820.361 374.494 820.22 374.421 820.067 374.393C819.914 374.364 819.756 374.382 819.613 374.443C819.47 374.504 819.349 374.607 819.264 374.737C819.179 374.867 819.134 375.02 819.136 375.175V375.175Z" fill="#FAFAFA"/>
<path d="M845.211 391.102V402.755C845.214 402.863 845.239 402.969 845.284 403.066C845.33 403.164 845.395 403.252 845.475 403.323C845.556 403.395 845.65 403.449 845.753 403.483C845.855 403.516 845.963 403.529 846.071 403.519L856.673 402.301C856.818 402.282 856.955 402.222 857.069 402.129C857.182 402.035 857.267 401.912 857.314 401.773C857.361 401.634 857.369 401.485 857.336 401.342C857.302 401.199 857.23 401.068 857.126 400.964L846.548 390.529C846.437 390.421 846.295 390.348 846.142 390.319C845.99 390.291 845.832 390.309 845.689 390.37C845.546 390.431 845.424 390.533 845.339 390.664C845.254 390.794 845.209 390.947 845.211 391.102V391.102Z" fill="#FAFAFA"/>
<path d="M857.365 410.181C857.241 410.184 857.117 410.162 857.002 410.117C856.886 410.072 856.78 410.003 856.691 409.917C856.602 409.83 856.532 409.726 856.483 409.612C856.435 409.497 856.41 409.374 856.41 409.25V396.26C856.41 396.007 856.511 395.764 856.69 395.584C856.869 395.405 857.112 395.305 857.365 395.305C857.619 395.305 857.862 395.405 858.041 395.584C858.22 395.764 858.32 396.007 858.32 396.26V409.25C858.321 409.374 858.296 409.497 858.247 409.612C858.199 409.726 858.128 409.83 858.039 409.917C857.95 410.003 857.845 410.072 857.729 410.117C857.613 410.162 857.49 410.184 857.365 410.181V410.181Z" fill="#FAFAFA"/>
<path d="M804.857 376.704V365.051C804.858 364.939 804.835 364.828 804.789 364.726C804.744 364.623 804.677 364.532 804.593 364.457C804.51 364.383 804.411 364.327 804.304 364.293C804.198 364.26 804.085 364.25 803.973 364.263L793.371 365.624C793.226 365.644 793.089 365.703 792.975 365.797C792.862 365.89 792.777 366.013 792.73 366.152C792.683 366.291 792.675 366.441 792.708 366.584C792.742 366.727 792.814 366.857 792.918 366.961L803.496 377.372C803.611 377.5 803.764 377.587 803.932 377.619C804.101 377.652 804.275 377.628 804.429 377.553C804.583 377.477 804.708 377.353 804.786 377.2C804.863 377.047 804.888 376.873 804.857 376.704V376.704Z" fill="#FAFAFA"/>
<path d="M792.703 372.501C792.449 372.501 792.206 372.4 792.027 372.221C791.848 372.042 791.748 371.799 791.748 371.546V358.46C791.748 358.207 791.848 357.964 792.027 357.785C792.206 357.606 792.449 357.505 792.703 357.505C792.956 357.505 793.199 357.606 793.378 357.785C793.557 357.964 793.658 358.207 793.658 358.46V371.45C793.671 371.584 793.656 371.718 793.614 371.845C793.572 371.972 793.504 372.089 793.414 372.188C793.324 372.287 793.214 372.366 793.092 372.42C792.969 372.474 792.837 372.502 792.703 372.501V372.501Z" fill="#FAFAFA"/>
<path d="M1075.61 524.606C1075.33 524.606 1075.05 524.493 1074.85 524.291C1074.65 524.09 1074.54 523.816 1074.54 523.531V518.756C1074.54 518.568 1074.6 518.385 1074.69 518.224C1074.79 518.063 1074.93 517.929 1075.09 517.836C1075.25 517.743 1075.44 517.693 1075.62 517.69C1075.81 517.688 1076 517.735 1076.16 517.824L1080.15 520.212C1080.4 520.353 1080.58 520.584 1080.65 520.857C1080.73 521.13 1080.69 521.422 1080.56 521.669C1080.41 521.916 1080.17 522.098 1079.9 522.173C1079.62 522.249 1079.33 522.214 1079.07 522.075L1076.69 520.69V523.555C1076.68 523.836 1076.56 524.103 1076.36 524.3C1076.16 524.496 1075.89 524.606 1075.61 524.606Z" fill="#FAFAFA"/>
<path d="M1079.62 536.593C1079.43 536.591 1079.24 536.542 1079.07 536.45L1075.09 534.062C1074.92 533.969 1074.78 533.834 1074.69 533.67C1074.59 533.507 1074.54 533.32 1074.54 533.13V528.832C1074.54 528.547 1074.65 528.274 1074.85 528.073C1075.05 527.871 1075.33 527.758 1075.61 527.758C1075.9 527.758 1076.17 527.871 1076.37 528.073C1076.57 528.274 1076.69 528.547 1076.69 528.832V532.51L1080.15 534.515C1080.4 534.656 1080.58 534.887 1080.65 535.16C1080.73 535.433 1080.69 535.725 1080.56 535.972C1080.48 536.154 1080.35 536.31 1080.18 536.42C1080.02 536.531 1079.82 536.591 1079.62 536.593V536.593Z" fill="#FAFAFA"/>
<path d="M1088.1 541.488C1087.91 541.479 1087.72 541.422 1087.55 541.321L1083.42 538.933C1083.18 538.784 1083 538.546 1082.93 538.27C1082.86 537.994 1082.9 537.7 1083.04 537.452C1083.18 537.21 1083.42 537.035 1083.69 536.963C1083.96 536.892 1084.25 536.93 1084.5 537.07L1087.03 538.527V536.139C1087.03 535.854 1087.14 535.581 1087.34 535.379C1087.54 535.178 1087.82 535.064 1088.1 535.064C1088.39 535.064 1088.66 535.178 1088.86 535.379C1089.06 535.581 1089.18 535.854 1089.18 536.139V540.342C1089.17 540.528 1089.12 540.71 1089.02 540.87C1088.93 541.029 1088.79 541.16 1088.63 541.249C1088.47 541.373 1088.29 541.455 1088.1 541.488V541.488Z" fill="#FAFAFA"/>
<path d="M1088.1 531.769C1087.82 531.769 1087.54 531.656 1087.34 531.454C1087.14 531.253 1087.03 530.98 1087.03 530.695V526.635L1084.64 525.203C1084.52 525.132 1084.41 525.038 1084.32 524.926C1084.24 524.814 1084.17 524.686 1084.14 524.55C1084.1 524.414 1084.09 524.271 1084.11 524.131C1084.13 523.991 1084.17 523.856 1084.24 523.734C1084.32 523.612 1084.41 523.505 1084.52 523.419C1084.63 523.333 1084.76 523.27 1084.9 523.233C1085.03 523.196 1085.18 523.187 1085.32 523.205C1085.46 523.224 1085.59 523.27 1085.71 523.34L1088.72 525.083C1088.89 525.174 1089.03 525.309 1089.13 525.473C1089.22 525.637 1089.27 525.824 1089.27 526.015V530.79C1089.26 530.932 1089.22 531.069 1089.15 531.195C1089.09 531.321 1089 531.432 1088.89 531.523C1088.78 531.614 1088.66 531.683 1088.52 531.725C1088.38 531.767 1088.24 531.782 1088.1 531.769Z" fill="#FAFAFA"/>
<path d="M1060.47 525.609C1060.28 525.61 1060.09 525.56 1059.92 525.465L1044.76 516.702C1044.6 516.603 1044.47 516.466 1044.38 516.303C1044.29 516.14 1044.24 515.958 1044.24 515.771V501.444C1044.24 501.257 1044.29 501.074 1044.38 500.912C1044.47 500.749 1044.6 500.612 1044.76 500.513C1044.93 500.418 1045.11 500.369 1045.3 500.369C1045.49 500.369 1045.67 500.418 1045.84 500.513L1061 509.276C1061.16 509.369 1061.3 509.504 1061.4 509.667C1061.5 509.831 1061.55 510.017 1061.55 510.207V524.534C1061.54 524.817 1061.43 525.087 1061.23 525.287C1061.03 525.487 1060.76 525.603 1060.47 525.609V525.609ZM1046.39 515.15L1059.4 522.672V510.733L1046.48 503.163L1046.39 515.15Z" fill="#FAFAFA"/>
<path d="M748.003 54.5854L654.638 1.05028C653.947 0.538472 653.11 0.262207 652.251 0.262207C651.391 0.262207 650.554 0.538472 649.863 1.05028L644.204 5.06183L648.048 9.83749V78.8458C648.084 81.3003 648.697 83.712 649.838 85.8857C650.978 88.0594 652.615 89.934 654.615 91.358L746.355 143.89L746.665 149.048L752.611 144.965C753.3 144.321 753.832 143.527 754.168 142.646C754.503 141.764 754.632 140.818 754.545 139.879V67.1454C754.52 64.6847 753.914 62.2649 752.777 60.0825C751.64 57.9 750.004 56.0167 748.003 54.5854Z" fill="#C32727"/>
<path opacity="0.3" d="M748.003 54.5854L654.638 1.05028C653.947 0.538472 653.11 0.262207 652.251 0.262207C651.391 0.262207 650.554 0.538472 649.863 1.05028L644.204 5.06183L648.048 9.83749V78.8458C648.084 81.3003 648.697 83.712 649.838 85.8857C650.978 88.0594 652.615 89.934 654.615 91.358L746.355 143.89L746.665 149.048L752.611 144.965C753.3 144.321 753.832 143.527 754.168 142.646C754.503 141.764 754.632 140.818 754.545 139.879V67.1454C754.52 64.6847 753.914 62.2649 752.777 60.0825C751.64 57.9 750.004 56.0167 748.003 54.5854Z" fill="black"/>
<path d="M742.415 148.594L649.051 95.0593C647.051 93.6353 645.415 91.7607 644.274 89.587C643.133 87.4133 642.52 85.0016 642.484 82.547V9.83764C642.484 5.06199 645.421 2.79355 649.051 4.89484L742.415 58.4061C744.412 59.8378 746.047 61.7174 747.187 63.8943C748.327 66.0712 748.942 68.485 748.982 70.9422V143.556C748.982 148.475 746.045 150.72 742.415 148.594Z" fill="#C32727"/>
<path d="M664.667 32.9516C664.667 35.7215 662.733 36.8438 660.321 35.3395C659.051 34.5162 657.994 33.4027 657.239 32.0907C656.483 30.7788 656.05 29.3061 655.976 27.7939C655.976 25.024 657.91 23.9018 660.321 25.4061C661.592 26.2294 662.649 27.3429 663.404 28.6548C664.16 29.9668 664.593 31.4395 664.667 32.9516V32.9516Z" fill="#455A64"/>
<path d="M691.387 48.3294C691.195 48.3306 691.005 48.2812 690.838 48.1862L669.992 36.1037C669.851 36.0414 669.724 35.9499 669.62 35.8352C669.517 35.7205 669.438 35.5852 669.39 35.4381C669.342 35.291 669.326 35.1355 669.343 34.9817C669.359 34.8279 669.408 34.6794 669.486 34.5457C669.564 34.412 669.669 34.2963 669.794 34.2061C669.92 34.1159 670.063 34.0533 670.215 34.0223C670.366 33.9913 670.523 33.9926 670.674 34.0263C670.825 34.0599 670.967 34.125 671.091 34.2174L691.937 46.1565C692.186 46.3059 692.367 46.5462 692.443 46.8267C692.519 47.1073 692.483 47.4063 692.342 47.6608C692.258 47.8475 692.124 48.008 691.956 48.1256C691.788 48.2432 691.592 48.3136 691.387 48.3294V48.3294Z" fill="#455A64"/>
<path d="M683.913 65.4024V88.0867C683.915 88.3003 683.962 88.511 684.05 88.7054C684.139 88.8997 684.267 89.0734 684.427 89.2151C684.587 89.3568 684.774 89.4635 684.978 89.5283C685.181 89.593 685.396 89.6144 685.608 89.5911L706.191 87.2032C706.478 87.1712 706.749 87.0589 706.975 86.8791C707.2 86.6994 707.37 86.4597 707.465 86.1876C707.56 85.9154 707.576 85.6221 707.511 85.3412C707.446 85.0604 707.303 84.8036 707.099 84.6005L686.516 64.3278C686.302 64.1165 686.031 63.9729 685.736 63.9149C685.441 63.857 685.136 63.8872 684.858 64.0019C684.58 64.1165 684.343 64.3106 684.174 64.5596C684.006 64.8087 683.915 65.1019 683.913 65.4024Z" fill="#FAFAFA"/>
<path d="M748.003 167.553L654.638 114.018C653.945 113.514 653.109 113.242 652.251 113.242C651.393 113.242 650.557 113.514 649.863 114.018L644.228 117.934L648.072 122.71V191.694C648.108 194.149 648.721 196.561 649.862 198.734C651.002 200.908 652.639 202.783 654.638 204.207L746.379 256.739L746.689 261.873L752.635 257.789C753.324 257.145 753.856 256.352 754.191 255.471C754.527 254.589 754.656 253.643 754.569 252.703V180.066C754.53 177.612 753.915 175.201 752.774 173.028C751.634 170.855 749.999 168.98 748.003 167.553Z" fill="#C32727"/>
<path opacity="0.3" d="M748.003 167.553L654.638 114.018C653.945 113.514 653.109 113.242 652.251 113.242C651.393 113.242 650.557 113.514 649.863 114.018L644.228 117.934L648.072 122.71V191.694C648.108 194.149 648.721 196.561 649.862 198.734C651.002 200.908 652.639 202.783 654.638 204.207L746.379 256.739L746.689 261.873L752.635 257.789C753.324 257.145 753.856 256.352 754.191 255.471C754.527 254.589 754.656 253.643 754.569 252.703V180.066C754.53 177.612 753.915 175.201 752.774 173.028C751.634 170.855 749.999 168.98 748.003 167.553Z" fill="black"/>
<path d="M742.415 261.563L649.051 208.027C647.053 206.596 645.419 204.716 644.279 202.539C643.139 200.362 642.524 197.949 642.484 195.491V122.806C642.484 118.03 645.421 115.642 649.051 117.863L742.415 171.398C744.415 172.822 746.051 174.697 747.192 176.87C748.333 179.044 748.946 181.456 748.982 183.91V256.62C748.982 261.443 746.045 263.664 742.415 261.563Z" fill="#C32727"/>
<path d="M664.667 145.944C664.667 148.713 662.733 149.836 660.321 148.451C659.051 147.628 657.994 146.514 657.239 145.202C656.483 143.89 656.05 142.417 655.976 140.905C655.976 138.135 657.91 137.013 660.321 138.517C661.576 139.329 662.623 140.424 663.378 141.713C664.133 143.003 664.574 144.452 664.667 145.944V145.944Z" fill="#455A64"/>
<path d="M691.387 161.297C691.195 161.298 691.005 161.249 690.838 161.154L669.992 149.095C669.851 149.033 669.724 148.942 669.62 148.827C669.517 148.712 669.438 148.577 669.39 148.43C669.342 148.283 669.326 148.127 669.343 147.973C669.359 147.82 669.408 147.671 669.486 147.537C669.564 147.404 669.669 147.288 669.794 147.198C669.92 147.108 670.063 147.045 670.215 147.014C670.366 146.983 670.523 146.984 670.674 147.018C670.825 147.052 670.967 147.117 671.091 147.209L691.937 159.148C692.186 159.298 692.367 159.538 692.443 159.818C692.519 160.099 692.483 160.398 692.342 160.653C692.259 160.838 692.125 160.996 691.956 161.11C691.788 161.224 691.591 161.289 691.387 161.297Z" fill="#455A64"/>
<path d="M704.257 179.374L684.534 183.361L683.818 200.816C683.034 200.432 682.147 200.314 681.291 200.479C680.434 200.644 679.655 201.084 679.071 201.732C678.487 202.38 678.13 203.201 678.054 204.07C677.979 204.939 678.188 205.809 678.651 206.548C679.115 207.287 679.806 207.855 680.621 208.166C681.436 208.477 682.331 208.513 683.168 208.27C684.006 208.027 684.742 207.518 685.264 206.819C685.786 206.12 686.066 205.27 686.062 204.398V204.398L687.208 188.423L701.535 185.033L701.679 200.339C701.06 200.065 700.382 199.952 699.708 200.013C699.035 200.073 698.387 200.303 697.827 200.682C697.267 201.062 696.813 201.577 696.507 202.18C696.201 202.784 696.053 203.455 696.078 204.131C696.103 204.807 696.299 205.465 696.648 206.044C696.998 206.623 697.489 207.104 698.075 207.441C698.662 207.779 699.324 207.961 700 207.972C700.677 207.982 701.344 207.821 701.941 207.502C702.556 207.173 703.075 206.689 703.448 206.099C703.82 205.509 704.033 204.832 704.066 204.135L704.257 179.374Z" fill="#FAFAFA"/>
<defs>
<filter id="filter0_f_202_154" x="0.566406" y="390.316" width="1246.54" height="804.216" filterUnits="userSpaceOnUse" color-interpolation-filters="sRGB">
<feFlood flood-opacity="0" result="BackgroundImageFix"/>
<feBlend mode="normal" in="SourceGraphic" in2="BackgroundImageFix" result="shape"/>
<feGaussianBlur stdDeviation="50" result="effect1_foregroundBlur_202_154"/>
</filter>
</defs>
</svg>
